<mxfile host="Electron" modified="2023-08-16T19:30:25.420Z" agent="Mozilla/5.0 (Macintosh; Intel Mac OS X 10_15_7) AppleWebKit/537.36 (KHTML, like Gecko) draw.io/21.6.8 Chrome/114.0.5735.289 Electron/25.5.0 Safari/537.36" etag="yhkjhfEBVhsargWV55Ba" version="21.6.8" type="device">
  <diagram name="Page-1" id="e7e014a7-5840-1c2e-5031-d8a46d1fe8dd">
    <mxGraphModel dx="1969" dy="1005" grid="1" gridSize="10" guides="1" tooltips="1" connect="1" arrows="1" fold="1" page="1" pageScale="1" pageWidth="1169" pageHeight="826" background="none" math="0" shadow="0">
      <root>
        <mxCell id="0" />
        <mxCell id="1" parent="0" />
        <mxCell id="3" value="бизнес-логика" style="swimlane;whiteSpace=wrap" parent="1" vertex="1">
          <mxGeometry x="250" y="290" width="650" height="1070" as="geometry" />
        </mxCell>
        <mxCell id="CCDiMU1Xzh_dTcWM6Mec-49" value="" style="shape=folder;fontStyle=1;spacingTop=10;tabWidth=45;tabHeight=20;tabPosition=left;html=1;whiteSpace=wrap;" parent="3" vertex="1">
          <mxGeometry x="242.5" y="70" width="205" height="120" as="geometry" />
        </mxCell>
        <mxCell id="9gTLiZTBdn7CNdjLMfYL-4" value="«interface»&lt;br&gt;&lt;b&gt;iService&lt;/b&gt;" style="html=1;whiteSpace=wrap;" parent="3" vertex="1">
          <mxGeometry x="55" y="70" width="110" height="50" as="geometry" />
        </mxCell>
        <mxCell id="9gTLiZTBdn7CNdjLMfYL-5" value="«interface»&lt;br&gt;&lt;b&gt;iRepo&lt;/b&gt;" style="html=1;whiteSpace=wrap;" parent="3" vertex="1">
          <mxGeometry x="530" y="70" width="110" height="50" as="geometry" />
        </mxCell>
        <mxCell id="9gTLiZTBdn7CNdjLMfYL-6" value="service" style="text;html=1;strokeColor=none;fillColor=none;align=center;verticalAlign=middle;whiteSpace=wrap;rounded=0;" parent="3" vertex="1">
          <mxGeometry x="315" y="90" width="60" height="30" as="geometry" />
        </mxCell>
        <mxCell id="9gTLiZTBdn7CNdjLMfYL-7" value="OrderService" style="swimlane;html=1;fontStyle=1;align=center;verticalAlign=top;childLayout=stackLayout;horizontal=1;startSize=26;horizontalStack=0;resizeParent=1;resizeLast=0;collapsible=1;marginBottom=0;swimlaneFillColor=#ffffff;rounded=0;shadow=0;comic=0;labelBackgroundColor=none;strokeWidth=1;fillColor=none;fontFamily=Verdana;fontSize=12" parent="3" vertex="1">
          <mxGeometry x="265" y="120" width="160" height="52" as="geometry" />
        </mxCell>
        <mxCell id="9gTLiZTBdn7CNdjLMfYL-8" value="adapter: iService" style="text;html=1;strokeColor=none;fillColor=none;align=left;verticalAlign=top;spacingLeft=4;spacingRight=4;whiteSpace=wrap;overflow=hidden;rotatable=0;points=[[0,0.5],[1,0.5]];portConstraint=eastwest;" parent="9gTLiZTBdn7CNdjLMfYL-7" vertex="1">
          <mxGeometry y="26" width="160" height="26" as="geometry" />
        </mxCell>
        <mxCell id="9gTLiZTBdn7CNdjLMfYL-23" value="+ method(type): type" style="text;html=1;strokeColor=none;fillColor=none;align=left;verticalAlign=top;spacingLeft=4;spacingRight=4;whiteSpace=wrap;overflow=hidden;rotatable=0;points=[[0,0.5],[1,0.5]];portConstraint=eastwest;" parent="3" vertex="1">
          <mxGeometry x="130" y="669.9999999999999" width="160" height="26" as="geometry" />
        </mxCell>
        <mxCell id="9gTLiZTBdn7CNdjLMfYL-26" value="+ method(type): type" style="text;html=1;strokeColor=none;fillColor=none;align=left;verticalAlign=top;spacingLeft=4;spacingRight=4;whiteSpace=wrap;overflow=hidden;rotatable=0;points=[[0,0.5],[1,0.5]];portConstraint=eastwest;" parent="3" vertex="1">
          <mxGeometry x="242.5" y="679.9999999999999" width="160" height="26" as="geometry" />
        </mxCell>
        <mxCell id="9gTLiZTBdn7CNdjLMfYL-33" value="" style="shape=folder;fontStyle=1;spacingTop=10;tabWidth=40;tabHeight=14;tabPosition=left;html=1;whiteSpace=wrap;" parent="3" vertex="1">
          <mxGeometry x="16" y="330" width="634" height="730" as="geometry" />
        </mxCell>
        <mxCell id="9gTLiZTBdn7CNdjLMfYL-34" value="Model" style="text;html=1;strokeColor=none;fillColor=none;align=center;verticalAlign=middle;whiteSpace=wrap;rounded=0;" parent="3" vertex="1">
          <mxGeometry x="295" y="350" width="60" height="30" as="geometry" />
        </mxCell>
        <mxCell id="9gTLiZTBdn7CNdjLMfYL-17" value="Order" style="swimlane;html=1;fontStyle=1;align=center;verticalAlign=top;childLayout=stackLayout;horizontal=1;startSize=26;horizontalStack=0;resizeParent=1;resizeLast=0;collapsible=1;marginBottom=0;swimlaneFillColor=#ffffff;rounded=0;shadow=0;comic=0;labelBackgroundColor=none;strokeWidth=1;fillColor=none;fontFamily=Verdana;fontSize=12" parent="3" vertex="1">
          <mxGeometry x="30" y="376" width="160" height="380" as="geometry" />
        </mxCell>
        <mxCell id="9gTLiZTBdn7CNdjLMfYL-18" value="id: int" style="text;html=1;strokeColor=none;fillColor=none;align=left;verticalAlign=top;spacingLeft=4;spacingRight=4;whiteSpace=wrap;overflow=hidden;rotatable=0;points=[[0,0.5],[1,0.5]];portConstraint=eastwest;" parent="9gTLiZTBdn7CNdjLMfYL-17" vertex="1">
          <mxGeometry y="26" width="160" height="26" as="geometry" />
        </mxCell>
        <mxCell id="JPOz18axJ88OFGRzKbDi-4" value="&amp;nbsp;customer_id: Long" style="text;whiteSpace=wrap;html=1;" parent="9gTLiZTBdn7CNdjLMfYL-17" vertex="1">
          <mxGeometry y="52" width="160" height="28" as="geometry" />
        </mxCell>
        <mxCell id="9gTLiZTBdn7CNdjLMfYL-19" value="hall_id:int" style="text;html=1;strokeColor=none;fillColor=none;align=left;verticalAlign=top;spacingLeft=4;spacingRight=4;whiteSpace=wrap;overflow=hidden;rotatable=0;points=[[0,0.5],[1,0.5]];portConstraint=eastwest;" parent="9gTLiZTBdn7CNdjLMfYL-17" vertex="1">
          <mxGeometry y="80" width="160" height="26" as="geometry" />
        </mxCell>
        <mxCell id="9gTLiZTBdn7CNdjLMfYL-20" value="table_id: str" style="text;html=1;strokeColor=none;fillColor=none;align=left;verticalAlign=top;spacingLeft=4;spacingRight=4;whiteSpace=wrap;overflow=hidden;rotatable=0;points=[[0,0.5],[1,0.5]];portConstraint=eastwest;" parent="9gTLiZTBdn7CNdjLMfYL-17" vertex="1">
          <mxGeometry y="106" width="160" height="26" as="geometry" />
        </mxCell>
        <mxCell id="9gTLiZTBdn7CNdjLMfYL-21" value="place: int" style="text;html=1;strokeColor=none;fillColor=none;align=left;verticalAlign=top;spacingLeft=4;spacingRight=4;whiteSpace=wrap;overflow=hidden;rotatable=0;points=[[0,0.5],[1,0.5]];portConstraint=eastwest;" parent="9gTLiZTBdn7CNdjLMfYL-17" vertex="1">
          <mxGeometry y="132" width="160" height="26" as="geometry" />
        </mxCell>
        <mxCell id="9gTLiZTBdn7CNdjLMfYL-24" value="date: Date" style="text;html=1;strokeColor=none;fillColor=none;align=left;verticalAlign=top;spacingLeft=4;spacingRight=4;whiteSpace=wrap;overflow=hidden;rotatable=0;points=[[0,0.5],[1,0.5]];portConstraint=eastwest;" parent="9gTLiZTBdn7CNdjLMfYL-17" vertex="1">
          <mxGeometry y="158" width="160" height="26" as="geometry" />
        </mxCell>
        <mxCell id="JPOz18axJ88OFGRzKbDi-5" value="&lt;span style=&quot;color: rgb(0, 0, 0); font-family: Helvetica; font-size: 12px; font-style: normal; font-variant-ligatures: normal; font-variant-caps: normal; font-weight: 400; letter-spacing: normal; orphans: 2; text-align: left; text-indent: 0px; text-transform: none; widows: 2; word-spacing: 0px; -webkit-text-stroke-width: 0px; background-color: rgb(251, 251, 251); text-decoration-thickness: initial; text-decoration-style: initial; text-decoration-color: initial; float: none; display: inline !important;&quot;&gt;&amp;nbsp;time: Time&lt;/span&gt;" style="text;whiteSpace=wrap;html=1;" parent="9gTLiZTBdn7CNdjLMfYL-17" vertex="1">
          <mxGeometry y="184" width="160" height="26" as="geometry" />
        </mxCell>
        <mxCell id="9gTLiZTBdn7CNdjLMfYL-22" value="" style="line;html=1;strokeWidth=1;fillColor=none;align=left;verticalAlign=middle;spacingTop=-1;spacingLeft=3;spacingRight=3;rotatable=0;labelPosition=right;points=[];portConstraint=eastwest;" parent="9gTLiZTBdn7CNdjLMfYL-17" vertex="1">
          <mxGeometry y="210" width="160" height="4" as="geometry" />
        </mxCell>
        <mxCell id="9gTLiZTBdn7CNdjLMfYL-25" value="+ getCustomer(): long" style="text;html=1;strokeColor=none;fillColor=none;align=left;verticalAlign=top;spacingLeft=4;spacingRight=4;whiteSpace=wrap;overflow=hidden;rotatable=0;points=[[0,0.5],[1,0.5]];portConstraint=eastwest;" parent="9gTLiZTBdn7CNdjLMfYL-17" vertex="1">
          <mxGeometry y="214" width="160" height="26" as="geometry" />
        </mxCell>
        <mxCell id="9gTLiZTBdn7CNdjLMfYL-30" value="+ getHall(): int" style="text;html=1;strokeColor=none;fillColor=none;align=left;verticalAlign=top;spacingLeft=4;spacingRight=4;whiteSpace=wrap;overflow=hidden;rotatable=0;points=[[0,0.5],[1,0.5]];portConstraint=eastwest;" parent="9gTLiZTBdn7CNdjLMfYL-17" vertex="1">
          <mxGeometry y="240" width="160" height="30" as="geometry" />
        </mxCell>
        <mxCell id="9gTLiZTBdn7CNdjLMfYL-61" value="+ getTable(): str" style="text;html=1;strokeColor=none;fillColor=none;align=left;verticalAlign=top;spacingLeft=4;spacingRight=4;whiteSpace=wrap;overflow=hidden;rotatable=0;points=[[0,0.5],[1,0.5]];portConstraint=eastwest;" parent="9gTLiZTBdn7CNdjLMfYL-17" vertex="1">
          <mxGeometry y="270" width="160" height="26" as="geometry" />
        </mxCell>
        <mxCell id="9gTLiZTBdn7CNdjLMfYL-28" value="+ getPlace(): int" style="text;html=1;strokeColor=none;fillColor=none;align=left;verticalAlign=top;spacingLeft=4;spacingRight=4;whiteSpace=wrap;overflow=hidden;rotatable=0;points=[[0,0.5],[1,0.5]];portConstraint=eastwest;" parent="9gTLiZTBdn7CNdjLMfYL-17" vertex="1">
          <mxGeometry y="296" width="160" height="26" as="geometry" />
        </mxCell>
        <mxCell id="9gTLiZTBdn7CNdjLMfYL-27" value="+ getDate(): Date" style="text;html=1;strokeColor=none;fillColor=none;align=left;verticalAlign=top;spacingLeft=4;spacingRight=4;whiteSpace=wrap;overflow=hidden;rotatable=0;points=[[0,0.5],[1,0.5]];portConstraint=eastwest;" parent="9gTLiZTBdn7CNdjLMfYL-17" vertex="1">
          <mxGeometry y="322" width="160" height="30" as="geometry" />
        </mxCell>
        <mxCell id="JPOz18axJ88OFGRzKbDi-6" value="&lt;span style=&quot;color: rgb(0, 0, 0); font-family: Helvetica; font-size: 12px; font-style: normal; font-variant-ligatures: normal; font-variant-caps: normal; font-weight: 400; letter-spacing: normal; orphans: 2; text-align: left; text-indent: 0px; text-transform: none; widows: 2; word-spacing: 0px; -webkit-text-stroke-width: 0px; background-color: rgb(251, 251, 251); text-decoration-thickness: initial; text-decoration-style: initial; text-decoration-color: initial; float: none; display: inline !important;&quot;&gt;&amp;nbsp;+ getTime(): Time&lt;/span&gt;" style="text;whiteSpace=wrap;html=1;" parent="9gTLiZTBdn7CNdjLMfYL-17" vertex="1">
          <mxGeometry y="352" width="160" height="28" as="geometry" />
        </mxCell>
        <mxCell id="9gTLiZTBdn7CNdjLMfYL-35" value="Hall" style="swimlane;html=1;fontStyle=1;align=center;verticalAlign=top;childLayout=stackLayout;horizontal=1;startSize=26;horizontalStack=0;resizeParent=1;resizeLast=0;collapsible=1;marginBottom=0;swimlaneFillColor=#ffffff;rounded=0;shadow=0;comic=0;labelBackgroundColor=none;strokeWidth=1;fillColor=none;fontFamily=Verdana;fontSize=12" parent="3" vertex="1">
          <mxGeometry x="245" y="376" width="160" height="180" as="geometry" />
        </mxCell>
        <mxCell id="9gTLiZTBdn7CNdjLMfYL-36" value="id: int" style="text;html=1;strokeColor=none;fillColor=none;align=left;verticalAlign=top;spacingLeft=4;spacingRight=4;whiteSpace=wrap;overflow=hidden;rotatable=0;points=[[0,0.5],[1,0.5]];portConstraint=eastwest;" parent="9gTLiZTBdn7CNdjLMfYL-35" vertex="1">
          <mxGeometry y="26" width="160" height="26" as="geometry" />
        </mxCell>
        <mxCell id="9gTLiZTBdn7CNdjLMfYL-37" value="reservationHall: boolean" style="text;html=1;strokeColor=none;fillColor=none;align=left;verticalAlign=top;spacingLeft=4;spacingRight=4;whiteSpace=wrap;overflow=hidden;rotatable=0;points=[[0,0.5],[1,0.5]];portConstraint=eastwest;" parent="9gTLiZTBdn7CNdjLMfYL-35" vertex="1">
          <mxGeometry y="52" width="160" height="26" as="geometry" />
        </mxCell>
        <mxCell id="9gTLiZTBdn7CNdjLMfYL-38" value="nameHall: str" style="text;html=1;strokeColor=none;fillColor=none;align=left;verticalAlign=top;spacingLeft=4;spacingRight=4;whiteSpace=wrap;overflow=hidden;rotatable=0;points=[[0,0.5],[1,0.5]];portConstraint=eastwest;" parent="9gTLiZTBdn7CNdjLMfYL-35" vertex="1">
          <mxGeometry y="78" width="160" height="26" as="geometry" />
        </mxCell>
        <mxCell id="9gTLiZTBdn7CNdjLMfYL-40" value="" style="line;html=1;strokeWidth=1;fillColor=none;align=left;verticalAlign=middle;spacingTop=-1;spacingLeft=3;spacingRight=3;rotatable=0;labelPosition=right;points=[];portConstraint=eastwest;" parent="9gTLiZTBdn7CNdjLMfYL-35" vertex="1">
          <mxGeometry y="104" width="160" height="8" as="geometry" />
        </mxCell>
        <mxCell id="9gTLiZTBdn7CNdjLMfYL-47" value="+ getNameHall(): str" style="text;html=1;strokeColor=none;fillColor=none;align=left;verticalAlign=top;spacingLeft=4;spacingRight=4;whiteSpace=wrap;overflow=hidden;rotatable=0;points=[[0,0.5],[1,0.5]];portConstraint=eastwest;" parent="9gTLiZTBdn7CNdjLMfYL-35" vertex="1">
          <mxGeometry y="112" width="160" height="26" as="geometry" />
        </mxCell>
        <mxCell id="9gTLiZTBdn7CNdjLMfYL-46" value="+ getReservationHall(): boolean" style="text;html=1;strokeColor=none;fillColor=none;align=left;verticalAlign=top;spacingLeft=4;spacingRight=4;whiteSpace=wrap;overflow=hidden;rotatable=0;points=[[0,0.5],[1,0.5]];portConstraint=eastwest;" parent="9gTLiZTBdn7CNdjLMfYL-35" vertex="1">
          <mxGeometry y="138" width="160" height="42" as="geometry" />
        </mxCell>
        <mxCell id="9gTLiZTBdn7CNdjLMfYL-45" value="" style="endArrow=open;endFill=1;endSize=12;html=1;rounded=0;entryX=0.5;entryY=0;entryDx=0;entryDy=0;exitX=0;exitY=0.25;exitDx=0;exitDy=0;" parent="3" source="9gTLiZTBdn7CNdjLMfYL-7" target="9gTLiZTBdn7CNdjLMfYL-17" edge="1">
          <mxGeometry width="160" relative="1" as="geometry">
            <mxPoint x="240" y="130" as="sourcePoint" />
            <mxPoint x="240" y="230" as="targetPoint" />
            <Array as="points">
              <mxPoint x="110" y="130" />
            </Array>
          </mxGeometry>
        </mxCell>
        <mxCell id="0Iuhs3s_fjSf0ytNmCYp-160" value="1" style="endArrow=open;html=1;endSize=12;startArrow=diamondThin;startSize=14;startFill=1;edgeStyle=orthogonalEdgeStyle;align=left;verticalAlign=bottom;rounded=0;exitX=0;exitY=0.5;exitDx=0;exitDy=0;entryX=0.25;entryY=1;entryDx=0;entryDy=0;" parent="3" source="9gTLiZTBdn7CNdjLMfYL-8" target="9gTLiZTBdn7CNdjLMfYL-4" edge="1">
          <mxGeometry x="-1" y="3" relative="1" as="geometry">
            <mxPoint x="300" y="260" as="sourcePoint" />
            <mxPoint x="460" y="260" as="targetPoint" />
          </mxGeometry>
        </mxCell>
        <mxCell id="0Iuhs3s_fjSf0ytNmCYp-161" value="1" style="endArrow=open;html=1;endSize=12;startArrow=diamondThin;startSize=14;startFill=1;edgeStyle=orthogonalEdgeStyle;align=left;verticalAlign=bottom;rounded=0;entryX=0.5;entryY=1;entryDx=0;entryDy=0;" parent="3" target="9gTLiZTBdn7CNdjLMfYL-5" edge="1">
          <mxGeometry x="-1" y="3" relative="1" as="geometry">
            <mxPoint x="425" y="160" as="sourcePoint" />
            <mxPoint x="585" y="160" as="targetPoint" />
          </mxGeometry>
        </mxCell>
        <mxCell id="JPOz18axJ88OFGRzKbDi-8" value="Table" style="swimlane;html=1;fontStyle=1;align=center;verticalAlign=top;childLayout=stackLayout;horizontal=1;startSize=26;horizontalStack=0;resizeParent=1;resizeLast=0;collapsible=1;marginBottom=0;swimlaneFillColor=#ffffff;rounded=0;shadow=0;comic=0;labelBackgroundColor=none;strokeWidth=1;fillColor=none;fontFamily=Verdana;fontSize=12" parent="3" vertex="1">
          <mxGeometry x="460" y="376" width="160" height="180" as="geometry" />
        </mxCell>
        <mxCell id="JPOz18axJ88OFGRzKbDi-9" value="id: int" style="text;html=1;strokeColor=none;fillColor=none;align=left;verticalAlign=top;spacingLeft=4;spacingRight=4;whiteSpace=wrap;overflow=hidden;rotatable=0;points=[[0,0.5],[1,0.5]];portConstraint=eastwest;" parent="JPOz18axJ88OFGRzKbDi-8" vertex="1">
          <mxGeometry y="26" width="160" height="26" as="geometry" />
        </mxCell>
        <mxCell id="JPOz18axJ88OFGRzKbDi-10" value="reservationTable: boolean" style="text;html=1;strokeColor=none;fillColor=none;align=left;verticalAlign=top;spacingLeft=4;spacingRight=4;whiteSpace=wrap;overflow=hidden;rotatable=0;points=[[0,0.5],[1,0.5]];portConstraint=eastwest;" parent="JPOz18axJ88OFGRzKbDi-8" vertex="1">
          <mxGeometry y="52" width="160" height="26" as="geometry" />
        </mxCell>
        <mxCell id="JPOz18axJ88OFGRzKbDi-12" value="nameTable: str" style="text;html=1;strokeColor=none;fillColor=none;align=left;verticalAlign=top;spacingLeft=4;spacingRight=4;whiteSpace=wrap;overflow=hidden;rotatable=0;points=[[0,0.5],[1,0.5]];portConstraint=eastwest;" parent="JPOz18axJ88OFGRzKbDi-8" vertex="1">
          <mxGeometry y="78" width="160" height="26" as="geometry" />
        </mxCell>
        <mxCell id="JPOz18axJ88OFGRzKbDi-13" value="" style="line;html=1;strokeWidth=1;fillColor=none;align=left;verticalAlign=middle;spacingTop=-1;spacingLeft=3;spacingRight=3;rotatable=0;labelPosition=right;points=[];portConstraint=eastwest;" parent="JPOz18axJ88OFGRzKbDi-8" vertex="1">
          <mxGeometry y="104" width="160" height="8" as="geometry" />
        </mxCell>
        <mxCell id="JPOz18axJ88OFGRzKbDi-14" value="+ getNameTable(): str" style="text;html=1;strokeColor=none;fillColor=none;align=left;verticalAlign=top;spacingLeft=4;spacingRight=4;whiteSpace=wrap;overflow=hidden;rotatable=0;points=[[0,0.5],[1,0.5]];portConstraint=eastwest;" parent="JPOz18axJ88OFGRzKbDi-8" vertex="1">
          <mxGeometry y="112" width="160" height="26" as="geometry" />
        </mxCell>
        <mxCell id="JPOz18axJ88OFGRzKbDi-15" value="+ getReservationTable(): boolean" style="text;html=1;strokeColor=none;fillColor=none;align=left;verticalAlign=top;spacingLeft=4;spacingRight=4;whiteSpace=wrap;overflow=hidden;rotatable=0;points=[[0,0.5],[1,0.5]];portConstraint=eastwest;" parent="JPOz18axJ88OFGRzKbDi-8" vertex="1">
          <mxGeometry y="138" width="160" height="42" as="geometry" />
        </mxCell>
        <mxCell id="JPOz18axJ88OFGRzKbDi-11" value="" style="endArrow=open;html=1;endSize=12;startArrow=diamondThin;startSize=14;startFill=1;edgeStyle=orthogonalEdgeStyle;align=left;verticalAlign=bottom;rounded=0;exitX=1.063;exitY=-0.077;exitDx=0;exitDy=0;exitPerimeter=0;" parent="3" edge="1">
          <mxGeometry x="-0.4311" y="-225" relative="1" as="geometry">
            <mxPoint x="190.03999999999994" y="498.99800000000005" as="sourcePoint" />
            <mxPoint x="460" y="420" as="targetPoint" />
            <Array as="points">
              <mxPoint x="230" y="499" />
              <mxPoint x="230" y="570" />
              <mxPoint x="433" y="570" />
              <mxPoint x="433" y="420" />
              <mxPoint x="460" y="420" />
            </Array>
            <mxPoint as="offset" />
          </mxGeometry>
        </mxCell>
        <mxCell id="JPOz18axJ88OFGRzKbDi-17" value="1" style="endArrow=open;html=1;endSize=12;startArrow=diamondThin;startSize=14;startFill=1;edgeStyle=orthogonalEdgeStyle;align=left;verticalAlign=bottom;rounded=0;exitX=1;exitY=0.5;exitDx=0;exitDy=0;entryX=0;entryY=0.5;entryDx=0;entryDy=0;" parent="3" source="9gTLiZTBdn7CNdjLMfYL-19" target="9gTLiZTBdn7CNdjLMfYL-36" edge="1">
          <mxGeometry x="-1" y="3" relative="1" as="geometry">
            <mxPoint x="380" y="690" as="sourcePoint" />
            <mxPoint x="540" y="690" as="targetPoint" />
          </mxGeometry>
        </mxCell>
        <mxCell id="JPOz18axJ88OFGRzKbDi-18" value="Place" style="swimlane;html=1;fontStyle=1;align=center;verticalAlign=top;childLayout=stackLayout;horizontal=1;startSize=26;horizontalStack=0;resizeParent=1;resizeLast=0;collapsible=1;marginBottom=0;swimlaneFillColor=#ffffff;rounded=0;shadow=0;comic=0;labelBackgroundColor=none;strokeWidth=1;fillColor=none;fontFamily=Verdana;fontSize=12" parent="3" vertex="1">
          <mxGeometry x="470" y="594" width="160" height="112" as="geometry" />
        </mxCell>
        <mxCell id="JPOz18axJ88OFGRzKbDi-19" value="id: int" style="text;html=1;strokeColor=none;fillColor=none;align=left;verticalAlign=top;spacingLeft=4;spacingRight=4;whiteSpace=wrap;overflow=hidden;rotatable=0;points=[[0,0.5],[1,0.5]];portConstraint=eastwest;" parent="JPOz18axJ88OFGRzKbDi-18" vertex="1">
          <mxGeometry y="26" width="160" height="26" as="geometry" />
        </mxCell>
        <mxCell id="JPOz18axJ88OFGRzKbDi-20" value="reservation: boolean" style="text;html=1;strokeColor=none;fillColor=none;align=left;verticalAlign=top;spacingLeft=4;spacingRight=4;whiteSpace=wrap;overflow=hidden;rotatable=0;points=[[0,0.5],[1,0.5]];portConstraint=eastwest;" parent="JPOz18axJ88OFGRzKbDi-18" vertex="1">
          <mxGeometry y="52" width="160" height="26" as="geometry" />
        </mxCell>
        <mxCell id="JPOz18axJ88OFGRzKbDi-23" value="" style="line;html=1;strokeWidth=1;fillColor=none;align=left;verticalAlign=middle;spacingTop=-1;spacingLeft=3;spacingRight=3;rotatable=0;labelPosition=right;points=[];portConstraint=eastwest;" parent="JPOz18axJ88OFGRzKbDi-18" vertex="1">
          <mxGeometry y="78" width="160" height="8" as="geometry" />
        </mxCell>
        <mxCell id="JPOz18axJ88OFGRzKbDi-25" value="+ getReservation(): boolean" style="text;html=1;strokeColor=none;fillColor=none;align=left;verticalAlign=top;spacingLeft=4;spacingRight=4;whiteSpace=wrap;overflow=hidden;rotatable=0;points=[[0,0.5],[1,0.5]];portConstraint=eastwest;" parent="JPOz18axJ88OFGRzKbDi-18" vertex="1">
          <mxGeometry y="86" width="160" height="26" as="geometry" />
        </mxCell>
        <mxCell id="JPOz18axJ88OFGRzKbDi-26" value="1" style="endArrow=open;html=1;endSize=12;startArrow=diamondThin;startSize=14;startFill=1;edgeStyle=orthogonalEdgeStyle;align=left;verticalAlign=bottom;rounded=0;entryX=0;entryY=0.5;entryDx=0;entryDy=0;" parent="3" target="JPOz18axJ88OFGRzKbDi-19" edge="1">
          <mxGeometry x="-1" y="3" relative="1" as="geometry">
            <mxPoint x="190" y="530" as="sourcePoint" />
            <mxPoint x="350" y="530" as="targetPoint" />
            <Array as="points">
              <mxPoint x="210" y="530" />
              <mxPoint x="210" y="633" />
            </Array>
          </mxGeometry>
        </mxCell>
        <mxCell id="JPOz18axJ88OFGRzKbDi-42" value="1" style="endArrow=open;html=1;endSize=12;startArrow=diamondThin;startSize=14;startFill=1;edgeStyle=orthogonalEdgeStyle;align=left;verticalAlign=bottom;rounded=0;exitX=1;exitY=0.5;exitDx=0;exitDy=0;entryX=0.031;entryY=0.538;entryDx=0;entryDy=0;entryPerimeter=0;" parent="3" source="JPOz18axJ88OFGRzKbDi-4" target="JPOz18axJ88OFGRzKbDi-28" edge="1">
          <mxGeometry x="-1" y="3" relative="1" as="geometry">
            <mxPoint x="520" y="830" as="sourcePoint" />
            <mxPoint x="240" y="700" as="targetPoint" />
            <Array as="points">
              <mxPoint x="220" y="442" />
              <mxPoint x="220" y="680" />
            </Array>
          </mxGeometry>
        </mxCell>
        <mxCell id="JPOz18axJ88OFGRzKbDi-27" value="Customer" style="swimlane;html=1;fontStyle=1;align=center;verticalAlign=top;childLayout=stackLayout;horizontal=1;startSize=26;horizontalStack=0;resizeParent=1;resizeLast=0;collapsible=1;marginBottom=0;swimlaneFillColor=#ffffff;rounded=0;shadow=0;comic=0;labelBackgroundColor=none;strokeWidth=1;fillColor=none;fontFamily=Verdana;fontSize=12" parent="3" vertex="1">
          <mxGeometry x="245" y="640" width="160" height="390" as="geometry" />
        </mxCell>
        <mxCell id="JPOz18axJ88OFGRzKbDi-28" value="id: int" style="text;html=1;strokeColor=none;fillColor=none;align=left;verticalAlign=top;spacingLeft=4;spacingRight=4;whiteSpace=wrap;overflow=hidden;rotatable=0;points=[[0,0.5],[1,0.5]];portConstraint=eastwest;" parent="JPOz18axJ88OFGRzKbDi-27" vertex="1">
          <mxGeometry y="26" width="160" height="26" as="geometry" />
        </mxCell>
        <mxCell id="JPOz18axJ88OFGRzKbDi-29" value="&amp;nbsp;name: str" style="text;whiteSpace=wrap;html=1;" parent="JPOz18axJ88OFGRzKbDi-27" vertex="1">
          <mxGeometry y="52" width="160" height="28" as="geometry" />
        </mxCell>
        <mxCell id="JPOz18axJ88OFGRzKbDi-30" value="last_name: int" style="text;html=1;strokeColor=none;fillColor=none;align=left;verticalAlign=top;spacingLeft=4;spacingRight=4;whiteSpace=wrap;overflow=hidden;rotatable=0;points=[[0,0.5],[1,0.5]];portConstraint=eastwest;" parent="JPOz18axJ88OFGRzKbDi-27" vertex="1">
          <mxGeometry y="80" width="160" height="26" as="geometry" />
        </mxCell>
        <mxCell id="JPOz18axJ88OFGRzKbDi-31" value="login: long" style="text;html=1;strokeColor=none;fillColor=none;align=left;verticalAlign=top;spacingLeft=4;spacingRight=4;whiteSpace=wrap;overflow=hidden;rotatable=0;points=[[0,0.5],[1,0.5]];portConstraint=eastwest;" parent="JPOz18axJ88OFGRzKbDi-27" vertex="1">
          <mxGeometry y="106" width="160" height="26" as="geometry" />
        </mxCell>
        <mxCell id="JPOz18axJ88OFGRzKbDi-32" value="password: long" style="text;html=1;strokeColor=none;fillColor=none;align=left;verticalAlign=top;spacingLeft=4;spacingRight=4;whiteSpace=wrap;overflow=hidden;rotatable=0;points=[[0,0.5],[1,0.5]];portConstraint=eastwest;" parent="JPOz18axJ88OFGRzKbDi-27" vertex="1">
          <mxGeometry y="132" width="160" height="26" as="geometry" />
        </mxCell>
        <mxCell id="JPOz18axJ88OFGRzKbDi-33" value="phone:: int" style="text;html=1;strokeColor=none;fillColor=none;align=left;verticalAlign=top;spacingLeft=4;spacingRight=4;whiteSpace=wrap;overflow=hidden;rotatable=0;points=[[0,0.5],[1,0.5]];portConstraint=eastwest;" parent="JPOz18axJ88OFGRzKbDi-27" vertex="1">
          <mxGeometry y="158" width="160" height="26" as="geometry" />
        </mxCell>
        <mxCell id="JPOz18axJ88OFGRzKbDi-34" value="&lt;span style=&quot;color: rgb(0, 0, 0); font-family: Helvetica; font-size: 12px; font-style: normal; font-variant-ligatures: normal; font-variant-caps: normal; font-weight: 400; letter-spacing: normal; orphans: 2; text-align: left; text-indent: 0px; text-transform: none; widows: 2; word-spacing: 0px; -webkit-text-stroke-width: 0px; background-color: rgb(251, 251, 251); text-decoration-thickness: initial; text-decoration-style: initial; text-decoration-color: initial; float: none; display: inline !important;&quot;&gt;&amp;nbsp;e-mail: long&lt;/span&gt;" style="text;whiteSpace=wrap;html=1;" parent="JPOz18axJ88OFGRzKbDi-27" vertex="1">
          <mxGeometry y="184" width="160" height="26" as="geometry" />
        </mxCell>
        <mxCell id="JPOz18axJ88OFGRzKbDi-35" value="" style="line;html=1;strokeWidth=1;fillColor=none;align=left;verticalAlign=middle;spacingTop=-1;spacingLeft=3;spacingRight=3;rotatable=0;labelPosition=right;points=[];portConstraint=eastwest;" parent="JPOz18axJ88OFGRzKbDi-27" vertex="1">
          <mxGeometry y="210" width="160" height="4" as="geometry" />
        </mxCell>
        <mxCell id="JPOz18axJ88OFGRzKbDi-36" value="+ getNameCustomer(): long" style="text;html=1;strokeColor=none;fillColor=none;align=left;verticalAlign=top;spacingLeft=4;spacingRight=4;whiteSpace=wrap;overflow=hidden;rotatable=0;points=[[0,0.5],[1,0.5]];portConstraint=eastwest;" parent="JPOz18axJ88OFGRzKbDi-27" vertex="1">
          <mxGeometry y="214" width="160" height="26" as="geometry" />
        </mxCell>
        <mxCell id="JPOz18axJ88OFGRzKbDi-37" value="+ getLastNameCustomerl(): int" style="text;html=1;strokeColor=none;fillColor=none;align=left;verticalAlign=top;spacingLeft=4;spacingRight=4;whiteSpace=wrap;overflow=hidden;rotatable=0;points=[[0,0.5],[1,0.5]];portConstraint=eastwest;" parent="JPOz18axJ88OFGRzKbDi-27" vertex="1">
          <mxGeometry y="240" width="160" height="40" as="geometry" />
        </mxCell>
        <mxCell id="JPOz18axJ88OFGRzKbDi-38" value="+ getLogin(): long" style="text;html=1;strokeColor=none;fillColor=none;align=left;verticalAlign=top;spacingLeft=4;spacingRight=4;whiteSpace=wrap;overflow=hidden;rotatable=0;points=[[0,0.5],[1,0.5]];portConstraint=eastwest;" parent="JPOz18axJ88OFGRzKbDi-27" vertex="1">
          <mxGeometry y="280" width="160" height="26" as="geometry" />
        </mxCell>
        <mxCell id="JPOz18axJ88OFGRzKbDi-39" value="+ getPassword(): long" style="text;html=1;strokeColor=none;fillColor=none;align=left;verticalAlign=top;spacingLeft=4;spacingRight=4;whiteSpace=wrap;overflow=hidden;rotatable=0;points=[[0,0.5],[1,0.5]];portConstraint=eastwest;" parent="JPOz18axJ88OFGRzKbDi-27" vertex="1">
          <mxGeometry y="306" width="160" height="26" as="geometry" />
        </mxCell>
        <mxCell id="JPOz18axJ88OFGRzKbDi-40" value="+ getPhone(): int" style="text;html=1;strokeColor=none;fillColor=none;align=left;verticalAlign=top;spacingLeft=4;spacingRight=4;whiteSpace=wrap;overflow=hidden;rotatable=0;points=[[0,0.5],[1,0.5]];portConstraint=eastwest;" parent="JPOz18axJ88OFGRzKbDi-27" vertex="1">
          <mxGeometry y="332" width="160" height="30" as="geometry" />
        </mxCell>
        <mxCell id="JPOz18axJ88OFGRzKbDi-41" value="&lt;span style=&quot;color: rgb(0, 0, 0); font-family: Helvetica; font-size: 12px; font-style: normal; font-variant-ligatures: normal; font-variant-caps: normal; font-weight: 400; letter-spacing: normal; orphans: 2; text-align: left; text-indent: 0px; text-transform: none; widows: 2; word-spacing: 0px; -webkit-text-stroke-width: 0px; background-color: rgb(251, 251, 251); text-decoration-thickness: initial; text-decoration-style: initial; text-decoration-color: initial; float: none; display: inline !important;&quot;&gt;&amp;nbsp;+ getEmail(): long&lt;/span&gt;" style="text;whiteSpace=wrap;html=1;" parent="JPOz18axJ88OFGRzKbDi-27" vertex="1">
          <mxGeometry y="362" width="160" height="28" as="geometry" />
        </mxCell>
        <mxCell id="4" value="Хранилище" style="swimlane;whiteSpace=wrap;startSize=23;" parent="1" vertex="1">
          <mxGeometry x="900" y="290" width="240" height="340" as="geometry" />
        </mxCell>
        <mxCell id="0Iuhs3s_fjSf0ytNmCYp-162" value="" style="shape=folder;fontStyle=1;spacingTop=10;tabWidth=40;tabHeight=14;tabPosition=left;html=1;whiteSpace=wrap;" parent="4" vertex="1">
          <mxGeometry x="20" y="70" width="200" height="120" as="geometry" />
        </mxCell>
        <mxCell id="0Iuhs3s_fjSf0ytNmCYp-167" value="repositoties" style="text;align=center;fontStyle=1;verticalAlign=middle;spacingLeft=3;spacingRight=3;strokeColor=none;rotatable=0;points=[[0,0.5],[1,0.5]];portConstraint=eastwest;html=1;" parent="4" vertex="1">
          <mxGeometry x="79" y="90" width="80" height="26" as="geometry" />
        </mxCell>
        <mxCell id="0Iuhs3s_fjSf0ytNmCYp-168" value="Repo" style="swimlane;fontStyle=1;align=center;verticalAlign=top;childLayout=stackLayout;horizontal=1;startSize=26;horizontalStack=0;resizeParent=1;resizeParentMax=0;resizeLast=0;collapsible=1;marginBottom=0;whiteSpace=wrap;html=1;" parent="4" vertex="1">
          <mxGeometry x="40" y="123" width="160" height="60" as="geometry" />
        </mxCell>
        <mxCell id="0Iuhs3s_fjSf0ytNmCYp-169" value="countOrders(): int&lt;br&gt;countCustomer(): int" style="text;strokeColor=none;fillColor=none;align=left;verticalAlign=top;spacingLeft=4;spacingRight=4;overflow=hidden;rotatable=0;points=[[0,0.5],[1,0.5]];portConstraint=eastwest;whiteSpace=wrap;html=1;" parent="0Iuhs3s_fjSf0ytNmCYp-168" vertex="1">
          <mxGeometry y="26" width="160" height="34" as="geometry" />
        </mxCell>
        <mxCell id="0Iuhs3s_fjSf0ytNmCYp-173" value="" style="shape=datastore;whiteSpace=wrap;html=1;" parent="4" vertex="1">
          <mxGeometry x="89" y="240" width="60" height="60" as="geometry" />
        </mxCell>
        <mxCell id="0Iuhs3s_fjSf0ytNmCYp-183" value="" style="endArrow=block;endFill=1;html=1;edgeStyle=orthogonalEdgeStyle;align=left;verticalAlign=top;rounded=0;exitX=0.5;exitY=1;exitDx=0;exitDy=0;exitPerimeter=0;" parent="4" source="0Iuhs3s_fjSf0ytNmCYp-162" edge="1">
          <mxGeometry x="-1" relative="1" as="geometry">
            <mxPoint x="120" y="210" as="sourcePoint" />
            <mxPoint x="120" y="240" as="targetPoint" />
            <Array as="points">
              <mxPoint x="120" y="230" />
              <mxPoint x="120" y="230" />
            </Array>
          </mxGeometry>
        </mxCell>
        <mxCell id="0Iuhs3s_fjSf0ytNmCYp-184" value="1" style="edgeLabel;resizable=0;html=1;align=left;verticalAlign=bottom;" parent="0Iuhs3s_fjSf0ytNmCYp-183" connectable="0" vertex="1">
          <mxGeometry x="-1" relative="1" as="geometry" />
        </mxCell>
        <mxCell id="2" value="адаптер" style="swimlane;whiteSpace=wrap" parent="1" vertex="1">
          <mxGeometry x="50" y="290" width="200" height="340" as="geometry" />
        </mxCell>
        <mxCell id="CCDiMU1Xzh_dTcWM6Mec-41" value="" style="shape=folder;fontStyle=1;spacingTop=10;tabWidth=40;tabHeight=14;tabPosition=left;html=1;whiteSpace=wrap;" parent="2" vertex="1">
          <mxGeometry x="15" y="52" width="150" height="98" as="geometry" />
        </mxCell>
        <mxCell id="CCDiMU1Xzh_dTcWM6Mec-42" value="adapters" style="text;html=1;strokeColor=none;fillColor=none;align=center;verticalAlign=middle;whiteSpace=wrap;rounded=0;" parent="2" vertex="1">
          <mxGeometry x="60" y="62" width="60" height="30" as="geometry" />
        </mxCell>
        <mxCell id="CCDiMU1Xzh_dTcWM6Mec-43" value="Adapter" style="swimlane;html=1;fontStyle=1;align=center;verticalAlign=top;childLayout=stackLayout;horizontal=1;startSize=26;horizontalStack=0;resizeParent=1;resizeLast=0;collapsible=1;marginBottom=0;swimlaneFillColor=#ffffff;rounded=0;shadow=0;comic=0;labelBackgroundColor=none;strokeWidth=1;fillColor=none;fontFamily=Verdana;fontSize=12" parent="2" vertex="1">
          <mxGeometry x="27.75" y="90" width="124.5" height="50" as="geometry" />
        </mxCell>
        <mxCell id="CCDiMU1Xzh_dTcWM6Mec-44" value="report: str" style="text;html=1;strokeColor=none;fillColor=none;align=left;verticalAlign=top;spacingLeft=4;spacingRight=4;whiteSpace=wrap;overflow=hidden;rotatable=0;points=[[0,0.5],[1,0.5]];portConstraint=eastwest;" parent="CCDiMU1Xzh_dTcWM6Mec-43" vertex="1">
          <mxGeometry y="26" width="124.5" height="24" as="geometry" />
        </mxCell>
        <mxCell id="9gTLiZTBdn7CNdjLMfYL-14" value="" style="endArrow=block;dashed=1;endFill=0;endSize=12;html=1;rounded=0;exitX=1;exitY=0.25;exitDx=0;exitDy=0;entryX=0.009;entryY=0.64;entryDx=0;entryDy=0;entryPerimeter=0;" parent="1" source="CCDiMU1Xzh_dTcWM6Mec-43" target="9gTLiZTBdn7CNdjLMfYL-4" edge="1">
          <mxGeometry width="160" relative="1" as="geometry">
            <mxPoint x="484" y="750" as="sourcePoint" />
            <mxPoint x="644" y="750" as="targetPoint" />
          </mxGeometry>
        </mxCell>
        <mxCell id="0Iuhs3s_fjSf0ytNmCYp-172" value="" style="endArrow=block;dashed=1;endFill=0;endSize=12;html=1;rounded=0;entryX=1;entryY=0.5;entryDx=0;entryDy=0;exitX=0;exitY=0.5;exitDx=0;exitDy=0;" parent="1" source="0Iuhs3s_fjSf0ytNmCYp-168" target="9gTLiZTBdn7CNdjLMfYL-5" edge="1">
          <mxGeometry width="160" relative="1" as="geometry">
            <mxPoint x="1150" y="600" as="sourcePoint" />
            <mxPoint x="1310" y="600" as="targetPoint" />
            <Array as="points">
              <mxPoint x="930" y="410" />
            </Array>
          </mxGeometry>
        </mxCell>
      </root>
    </mxGraphModel>
  </diagram>
</mxfile>
